<?xml version='1.0' encoding='UTF-8'?>
<svg xmlns="http://www.w3.org/2000/svg" width="752.03" height="400.89" viewBox="43.66 92.29 752.03 400.89">
<path fill-rule="nonzero" fill="rgb(13.729858%, 12.159729%, 12.548828%)" fill-opacity="1" d="M 166.0625 405.15625 C 158.320312 405.15625 154.09375 413.839844 154.09375 441.648438 C 154.09375 469.457031 158.320312 478.136719 166.0625 478.136719 C 173.804688 478.136719 178.03125 469.457031 178.03125 441.648438 C 178.03125 413.839844 173.804688 405.15625 166.0625 405.15625 M 166.0625 485.179688 C 152.21875 485.179688 145.644531 472.269531 145.644531 441.648438 C 145.644531 411.023438 152.21875 398.117188 166.0625 398.117188 C 179.90625 398.117188 186.480469 411.023438 186.480469 441.648438 C 186.480469 472.269531 179.90625 485.179688 166.0625 485.179688 " />
<path fill-rule="nonzero" fill="rgb(13.729858%, 12.159729%, 12.548828%)" fill-opacity="1" d="M 204.546875 484.003906 L 204.546875 476.964844 L 214.871094 476.964844 L 214.871094 408.910156 L 204.3125 409.847656 L 204.3125 404.6875 C 209.125 403.511719 213.816406 401.402344 217.6875 398.117188 L 223.320312 398.117188 L 223.320312 476.964844 L 233.179688 476.964844 L 233.179688 484.003906 Z M 204.546875 484.003906 " />
<path fill-rule="nonzero" fill="rgb(13.729858%, 12.159729%, 12.548828%)" fill-opacity="1" d="M 251.246094 399.289062 L 289.261719 399.289062 L 289.261719 403.75 L 264.621094 484.003906 L 255.707031 484.003906 L 280.34375 406.328125 L 251.246094 406.328125 Z M 251.246094 399.289062 " />
<path fill-rule="nonzero" fill="rgb(13.729858%, 12.159729%, 12.548828%)" fill-opacity="1" d="M 322.351562 405.15625 C 315.074219 405.15625 311.789062 410.789062 311.789062 416.183594 C 311.789062 424.75 316.015625 431.085938 322.351562 434.960938 C 328.6875 431.085938 332.910156 424.75 332.910156 416.183594 C 332.910156 410.789062 329.625 405.15625 322.351562 405.15625 M 322.351562 443.40625 C 315.542969 448.453125 309.914062 453.851562 309.914062 463.003906 C 309.914062 469.925781 313.667969 478.136719 322.351562 478.136719 C 331.03125 478.136719 334.789062 469.925781 334.789062 463.003906 C 334.789062 453.851562 329.15625 448.453125 322.351562 443.40625 M 322.351562 485.179688 C 309.207031 485.179688 301.464844 474.851562 301.464844 462.648438 C 301.464844 452.207031 306.980469 444.699219 315.074219 438.949219 C 307.566406 432.964844 303.34375 427.097656 303.34375 417.125 C 303.34375 405.976562 311.789062 398.117188 322.351562 398.117188 C 332.910156 398.117188 341.359375 405.976562 341.359375 417.125 C 341.359375 427.097656 337.132812 432.964844 329.625 438.949219 C 337.722656 444.699219 343.234375 452.207031 343.234375 462.648438 C 343.234375 474.851562 335.492188 485.179688 322.351562 485.179688 " />
<path fill-rule="nonzero" fill="rgb(13.729858%, 12.159729%, 12.548828%)" fill-opacity="1" d="M 381.484375 399.289062 L 419.503906 399.289062 L 419.503906 403.75 L 394.863281 484.003906 L 385.945312 484.003906 L 410.585938 406.328125 L 381.484375 406.328125 Z M 381.484375 399.289062 " />
<path fill-rule="nonzero" fill="rgb(13.729858%, 12.159729%, 12.548828%)" fill-opacity="1" d="M 433.582031 416.183594 C 434.519531 406.210938 439.917969 398.117188 450.828125 398.117188 C 460.332031 398.117188 469.71875 404.6875 469.71875 418.765625 C 469.71875 430.734375 464.792969 437.539062 458.691406 438.714844 L 458.691406 438.949219 C 468.195312 442.117188 471.128906 451.035156 471.128906 460.070312 C 471.128906 477.433594 461.039062 485.179688 450.476562 485.179688 C 439.214844 485.179688 431.585938 476.144531 431.46875 463.824219 L 439.214844 463.824219 C 439.917969 472.976562 443.90625 478.136719 451.414062 478.136719 C 457.046875 478.136719 462.679688 472.039062 462.679688 460.421875 C 462.679688 446.457031 456.8125 442.46875 443.4375 442.46875 L 443.4375 435.429688 C 456.109375 435.429688 461.273438 432.378906 461.273438 419.238281 C 461.273438 409.144531 457.28125 405.15625 451.414062 405.15625 C 444.140625 405.15625 441.558594 411.257812 441.324219 417.125 Z M 433.582031 416.183594 " />
<path fill-rule="nonzero" fill="rgb(13.729858%, 12.159729%, 12.548828%)" fill-opacity="1" d="M 504.683594 405.15625 C 496.941406 405.15625 492.71875 413.839844 492.71875 441.648438 C 492.71875 469.457031 496.941406 478.136719 504.683594 478.136719 C 512.429688 478.136719 516.652344 469.457031 516.652344 441.648438 C 516.652344 413.839844 512.429688 405.15625 504.683594 405.15625 M 504.683594 485.179688 C 490.839844 485.179688 484.269531 472.269531 484.269531 441.648438 C 484.269531 411.023438 490.839844 398.117188 504.683594 398.117188 C 518.53125 398.117188 525.101562 411.023438 525.101562 441.648438 C 525.101562 472.269531 518.53125 485.179688 504.683594 485.179688 " />
<path fill-rule="nonzero" fill="rgb(13.729858%, 12.159729%, 12.548828%)" fill-opacity="1" d="M 571.328125 454.90625 C 571.328125 472.035156 575.789062 478.136719 583.296875 478.136719 C 589.871094 478.136719 594.328125 473.210938 594.328125 458.542969 C 594.328125 443.40625 589.164062 439.652344 583.765625 439.652344 C 578.371094 439.652344 574.144531 443.171875 571.328125 446.925781 Z M 593.15625 415.011719 C 591.980469 406.5625 587.289062 405.15625 584.003906 405.15625 C 576.492188 405.15625 571.800781 415.480469 571.5625 439.066406 C 574.96875 435.429688 579.542969 432.613281 584.585938 432.613281 C 594.09375 432.613281 602.773438 439.417969 602.773438 458.660156 C 602.773438 475.085938 595.734375 485.179688 584.585938 485.179688 C 569.921875 485.179688 562.882812 476.730469 562.882812 446.222656 C 562.882812 412.195312 570.859375 398.117188 584.234375 398.117188 C 595.148438 398.117188 599.253906 404.6875 600.898438 414.542969 Z M 593.15625 415.011719 " />
<path fill-rule="nonzero" fill="rgb(13.729858%, 12.159729%, 12.548828%)" fill-opacity="1" d="M 634.925781 405.15625 C 627.179688 405.15625 622.957031 413.839844 622.957031 441.648438 C 622.957031 469.457031 627.179688 478.136719 634.925781 478.136719 C 642.667969 478.136719 646.890625 469.457031 646.890625 441.648438 C 646.890625 413.839844 642.667969 405.15625 634.925781 405.15625 M 634.925781 485.179688 C 621.078125 485.179688 614.507812 472.269531 614.507812 441.648438 C 614.507812 411.023438 621.078125 398.117188 634.925781 398.117188 C 648.769531 398.117188 655.339844 411.023438 655.339844 441.648438 C 655.339844 472.269531 648.769531 485.179688 634.925781 485.179688 " />
<path fill-rule="nonzero" fill="rgb(13.729858%, 12.159729%, 12.548828%)" fill-opacity="1" d="M 694.058594 416.183594 C 694.996094 406.210938 700.394531 398.117188 711.308594 398.117188 C 720.8125 398.117188 730.199219 404.6875 730.199219 418.765625 C 730.199219 430.734375 725.269531 437.539062 719.167969 438.714844 L 719.167969 438.949219 C 728.671875 442.117188 731.605469 451.035156 731.605469 460.070312 C 731.605469 477.433594 721.515625 485.179688 710.957031 485.179688 C 699.691406 485.179688 692.066406 476.144531 691.945312 463.824219 L 699.691406 463.824219 C 700.394531 472.976562 704.386719 478.136719 711.894531 478.136719 C 717.527344 478.136719 723.160156 472.039062 723.160156 460.421875 C 723.160156 446.457031 717.292969 442.46875 703.914062 442.46875 L 703.914062 435.429688 C 716.589844 435.429688 721.75 432.378906 721.75 419.238281 C 721.75 409.144531 717.761719 405.15625 711.894531 405.15625 C 704.621094 405.15625 702.039062 411.257812 701.804688 417.125 Z M 694.058594 416.183594 " />
<path fill-rule="nonzero" fill="rgb(13.729858%, 12.159729%, 12.548828%)" fill-opacity="1" d="M 746.15625 416.183594 C 747.09375 406.210938 752.492188 398.117188 763.402344 398.117188 C 772.90625 398.117188 782.292969 404.6875 782.292969 418.765625 C 782.292969 430.734375 777.367188 437.539062 771.265625 438.714844 L 771.265625 438.949219 C 780.769531 442.117188 783.703125 451.035156 783.703125 460.070312 C 783.703125 477.433594 773.609375 485.179688 763.050781 485.179688 C 751.789062 485.179688 744.160156 476.144531 744.042969 463.824219 L 751.789062 463.824219 C 752.492188 472.976562 756.480469 478.136719 763.988281 478.136719 C 769.621094 478.136719 775.253906 472.039062 775.253906 460.421875 C 775.253906 446.457031 769.386719 442.46875 756.011719 442.46875 L 756.011719 435.429688 C 768.683594 435.429688 773.847656 432.378906 773.847656 419.238281 C 773.847656 409.144531 769.855469 405.15625 763.988281 405.15625 C 756.714844 405.15625 754.132812 411.257812 753.898438 417.125 Z M 746.15625 416.183594 " />
<path fill-rule="nonzero" fill="rgb(13.729858%, 12.159729%, 12.548828%)" fill-opacity="1" d="M 101.964844 447.777344 L 95.886719 454.882812 L 89.070312 463.453125 L 82.996094 470.515625 C 76.089844 478.5625 64.25 480.0625 55.570312 474.027344 C 52.296875 471.738281 51.660156 467.082031 54.304688 464.042969 L 59.238281 458.242188 C 60.539062 456.742188 62.394531 455.953125 64.25 455.953125 C 65.671875 455.953125 67.09375 456.386719 68.277344 457.335938 C 71.078125 459.464844 75.0625 459.070312 77.351562 456.386719 L 78.8125 454.652344 L 85.667969 446.082031 L 87.125 444.347656 C 89.414062 441.703125 89.21875 437.714844 86.691406 435.269531 C 85.3125 433.96875 84.640625 432.230469 84.640625 430.496094 C 84.640625 428.996094 85.152344 427.457031 86.222656 426.234375 L 91.191406 420.433594 C 93.796875 417.355469 98.492188 417.238281 101.253906 420.15625 C 108.554688 427.8125 108.871094 439.769531 101.964844 447.777344 " />
<path fill-rule="nonzero" fill="rgb(13.729858%, 12.159729%, 12.548828%)" fill-opacity="1" d="M 103.800781 268.679688 L 96.347656 278.355469 L 83.058594 278.355469 L 83.058594 305.878906 L 71.546875 305.878906 L 71.546875 278.355469 L 54.089844 278.355469 L 61.539062 268.679688 Z M 103.800781 268.679688 " />
<path fill-rule="nonzero" fill="rgb(13.729858%, 12.159729%, 12.548828%)" fill-opacity="1" d="M 155.625 289.644531 C 155.625 300.875 147.894531 306.492188 132.4375 306.492188 C 127.949219 306.492188 124.09375 306.140625 120.871094 305.433594 C 117.644531 304.730469 114.984375 303.675781 112.890625 302.265625 C 110.796875 300.855469 109.257812 299.105469 108.277344 297.011719 C 107.292969 294.917969 106.800781 292.460938 106.800781 289.644531 L 106.800781 268.679688 L 118.257812 268.679688 L 118.257812 289.644531 C 118.257812 291.015625 118.441406 292.164062 118.8125 293.089844 C 119.183594 294.019531 119.878906 294.769531 120.898438 295.34375 C 121.917969 295.917969 123.355469 296.324219 125.207031 296.566406 C 127.058594 296.808594 129.46875 296.925781 132.4375 296.925781 C 134.660156 296.925781 136.515625 296.796875 137.996094 296.539062 C 139.480469 296.277344 140.664062 295.851562 141.554688 295.257812 C 142.445312 294.667969 143.085938 293.90625 143.472656 292.980469 C 143.863281 292.054688 144.058594 290.941406 144.058594 289.644531 L 144.058594 268.679688 L 155.625 268.679688 Z M 155.625 289.644531 " />
<path fill-rule="nonzero" fill="rgb(13.729858%, 12.159729%, 12.548828%)" fill-opacity="1" d="M 199.832031 306.492188 C 199.089844 306.492188 198.355469 306.371094 197.632812 306.128906 C 196.910156 305.886719 196.105469 305.34375 195.214844 304.492188 L 172.417969 284.027344 L 172.417969 305.878906 L 161.964844 305.878906 L 161.964844 275.019531 C 161.964844 273.796875 162.140625 272.738281 162.492188 271.847656 C 162.84375 270.960938 163.304688 270.238281 163.882812 269.679688 C 164.457031 269.125 165.125 268.71875 165.882812 268.457031 C 166.640625 268.199219 167.429688 268.066406 168.246094 268.066406 C 168.949219 268.066406 169.664062 268.1875 170.386719 268.429688 C 171.109375 268.671875 171.933594 269.21875 172.859375 270.070312 L 195.660156 290.53125 L 195.660156 268.679688 L 206.167969 268.679688 L 206.167969 299.484375 C 206.167969 300.707031 205.992188 301.765625 205.640625 302.65625 C 205.289062 303.542969 204.824219 304.277344 204.25 304.851562 C 203.675781 305.425781 203 305.84375 202.222656 306.101562 C 201.441406 306.359375 200.644531 306.492188 199.832031 306.492188 " />
<path fill-rule="nonzero" fill="rgb(13.729858%, 12.159729%, 12.548828%)" fill-opacity="1" d="M 260.273438 296.316406 L 252.878906 305.878906 L 234.195312 305.878906 C 230.96875 305.878906 227.984375 305.398438 225.242188 304.433594 C 222.496094 303.46875 220.132812 302.144531 218.152344 300.457031 C 216.167969 298.769531 214.609375 296.769531 213.480469 294.453125 C 212.347656 292.136719 211.785156 289.625 211.785156 286.917969 C 211.785156 284.214844 212.347656 281.738281 213.480469 279.496094 C 214.609375 277.253906 216.167969 275.324219 218.152344 273.710938 C 220.132812 272.097656 222.496094 270.859375 225.242188 269.984375 C 227.984375 269.117188 230.96875 268.679688 234.195312 268.679688 L 260.273438 268.679688 L 252.878906 278.355469 L 234.195312 278.355469 C 232.636719 278.355469 231.191406 278.578125 229.855469 279.023438 C 228.523438 279.46875 227.371094 280.089844 226.410156 280.886719 C 225.445312 281.683594 224.683594 282.636719 224.128906 283.75 C 223.574219 284.859375 223.296875 286.082031 223.296875 287.417969 C 223.296875 288.753906 223.5625 289.96875 224.101562 291.0625 C 224.636719 292.152344 225.398438 293.089844 226.382812 293.871094 C 227.363281 294.648438 228.523438 295.25 229.855469 295.675781 C 231.191406 296.101562 232.636719 296.316406 234.195312 296.316406 Z M 260.273438 296.316406 " />
<path fill-rule="nonzero" fill="rgb(13.729858%, 12.159729%, 12.548828%)" fill-opacity="1" d="M 301.308594 305.878906 L 308.257812 296.316406 L 321.078125 296.316406 C 322.28125 296.316406 323.328125 296.355469 324.21875 296.425781 C 323.699219 295.757812 323.097656 294.917969 322.410156 293.898438 C 321.726562 292.878906 321.066406 291.921875 320.4375 291.03125 L 313.765625 281.191406 L 296.304688 305.878906 L 282.679688 305.878906 L 306.535156 272.238281 C 307.316406 271.164062 308.296875 270.199219 309.484375 269.347656 C 310.667969 268.496094 312.171875 268.066406 313.988281 268.066406 C 315.730469 268.066406 317.183594 268.464844 318.351562 269.261719 C 319.519531 270.0625 320.511719 271.054688 321.328125 272.238281 L 344.570312 305.878906 Z M 301.308594 305.878906 " />
<path fill-rule="nonzero" fill="rgb(13.729858%, 12.159729%, 12.548828%)" fill-opacity="1" d="M 392.613281 289.644531 C 392.613281 300.875 384.886719 306.492188 369.425781 306.492188 C 364.941406 306.492188 361.085938 306.140625 357.859375 305.433594 C 354.636719 304.730469 351.976562 303.675781 349.878906 302.265625 C 347.785156 300.855469 346.246094 299.105469 345.265625 297.011719 C 344.28125 294.917969 343.792969 292.460938 343.792969 289.644531 L 343.792969 268.679688 L 355.246094 268.679688 L 355.246094 289.644531 C 355.246094 291.015625 355.433594 292.164062 355.800781 293.089844 C 356.171875 294.019531 356.867188 294.769531 357.886719 295.34375 C 358.90625 295.917969 360.34375 296.324219 362.199219 296.566406 C 364.050781 296.808594 366.460938 296.925781 369.425781 296.925781 C 371.652344 296.925781 373.503906 296.796875 374.988281 296.539062 C 376.46875 296.277344 377.65625 295.851562 378.546875 295.257812 C 379.4375 294.667969 380.074219 293.90625 380.464844 292.980469 C 380.851562 292.054688 381.046875 290.941406 381.046875 289.644531 L 381.046875 268.679688 L 392.613281 268.679688 Z M 392.613281 289.644531 " />
<path fill-rule="nonzero" fill="rgb(13.729858%, 12.159729%, 12.548828%)" fill-opacity="1" d="M 445.328125 268.679688 L 437.875 278.355469 L 424.585938 278.355469 L 424.585938 305.878906 L 413.074219 305.878906 L 413.074219 278.355469 L 395.617188 278.355469 L 403.066406 268.679688 Z M 445.328125 268.679688 " />
<path fill-rule="nonzero" fill="rgb(13.729858%, 12.159729%, 12.548828%)" fill-opacity="1" d="M 469.574219 296.816406 C 472.464844 296.816406 474.910156 296.695312 476.914062 296.453125 C 478.914062 296.214844 480.535156 295.742188 481.777344 295.035156 C 483.019531 294.332031 483.917969 293.359375 484.472656 292.117188 C 485.03125 290.875 485.308594 289.253906 485.308594 287.25 C 485.308594 285.25 485.03125 283.628906 484.472656 282.386719 C 483.917969 281.144531 483.019531 280.179688 481.777344 279.496094 C 480.535156 278.808594 478.914062 278.347656 476.914062 278.105469 C 474.910156 277.863281 472.464844 277.742188 469.574219 277.742188 C 466.679688 277.742188 464.234375 277.863281 462.234375 278.105469 C 460.230469 278.347656 458.609375 278.808594 457.367188 279.496094 C 456.125 280.179688 455.226562 281.144531 454.671875 282.386719 C 454.113281 283.628906 453.835938 285.25 453.835938 287.25 C 453.835938 289.253906 454.113281 290.875 454.671875 292.117188 C 455.226562 293.359375 456.125 294.332031 457.367188 295.035156 C 458.609375 295.742188 460.230469 296.214844 462.234375 296.453125 C 464.234375 296.695312 466.679688 296.816406 469.574219 296.816406 M 469.574219 268.066406 C 478.617188 268.066406 485.410156 269.605469 489.953125 272.683594 C 494.492188 275.761719 496.761719 280.617188 496.761719 287.25 C 496.761719 293.925781 494.503906 298.800781 489.980469 301.875 C 485.457031 304.953125 478.65625 306.492188 469.574219 306.492188 C 460.453125 306.492188 453.640625 304.953125 449.136719 301.875 C 444.632812 298.800781 442.382812 293.925781 442.382812 287.25 C 442.382812 280.617188 444.640625 275.761719 449.164062 272.683594 C 453.6875 269.605469 460.488281 268.066406 469.574219 268.066406 " />
<path fill-rule="nonzero" fill="rgb(13.729858%, 12.159729%, 12.548828%)" fill-opacity="1" d="M 526.679688 282.523438 C 527.496094 283.972656 528.210938 285.242188 528.820312 286.335938 C 529.433594 287.429688 529.96875 288.402344 530.433594 289.253906 C 530.894531 290.105469 531.304688 290.882812 531.65625 291.589844 C 532.007812 292.292969 532.351562 292.980469 532.6875 293.648438 C 532.980469 292.980469 533.304688 292.304688 533.660156 291.617188 C 534.011719 290.933594 534.417969 290.152344 534.882812 289.28125 C 535.34375 288.410156 535.882812 287.4375 536.496094 286.359375 C 537.105469 285.289062 537.820312 284.027344 538.636719 282.582031 L 544.585938 272.015625 C 545.253906 270.832031 546.09375 269.875 547.117188 269.152344 C 548.132812 268.429688 549.402344 268.066406 550.925781 268.066406 C 552.371094 268.066406 553.675781 268.484375 554.84375 269.320312 C 556.011719 270.152344 556.855469 271.441406 557.375 273.183594 L 566.769531 305.878906 L 555.316406 305.878906 L 551.8125 292.925781 C 551.21875 290.8125 550.71875 288.957031 550.3125 287.363281 C 549.902344 285.769531 549.550781 284.210938 549.253906 282.691406 C 548.625 283.988281 547.921875 285.425781 547.144531 287 C 546.363281 288.578125 545.34375 290.570312 544.085938 292.980469 L 539.082031 302.320312 C 538.597656 303.246094 538.105469 303.980469 537.605469 304.515625 C 537.105469 305.054688 536.597656 305.472656 536.078125 305.769531 C 535.558594 306.066406 535.003906 306.261719 534.410156 306.351562 C 533.816406 306.445312 533.167969 306.492188 532.464844 306.492188 C 531.757812 306.492188 531.109375 306.445312 530.515625 306.351562 C 529.921875 306.261719 529.367188 306.066406 528.847656 305.769531 C 528.328125 305.472656 527.820312 305.054688 527.320312 304.515625 C 526.820312 303.980469 526.328125 303.246094 525.84375 302.320312 L 520.839844 292.925781 C 520.175781 291.664062 519.582031 290.53125 519.0625 289.53125 C 518.542969 288.53125 518.070312 287.632812 517.644531 286.835938 C 517.21875 286.039062 516.847656 285.304688 516.53125 284.636719 C 516.21875 283.972656 515.910156 283.324219 515.613281 282.691406 C 515.316406 284.175781 514.964844 285.722656 514.558594 287.335938 C 514.148438 288.949219 513.667969 290.8125 513.113281 292.925781 L 509.609375 305.878906 L 498.320312 305.878906 L 507.941406 273.183594 C 508.460938 271.441406 509.3125 270.152344 510.5 269.320312 C 511.683594 268.484375 513 268.066406 514.445312 268.066406 C 515.929688 268.066406 517.179688 268.421875 518.199219 269.125 C 519.21875 269.828125 520.0625 270.792969 520.730469 272.015625 Z M 526.679688 282.523438 " />
<path fill-rule="nonzero" fill="rgb(13.729858%, 12.159729%, 12.548828%)" fill-opacity="1" d="M 594.851562 296.816406 C 597.746094 296.816406 600.191406 296.695312 602.195312 296.453125 C 604.195312 296.214844 605.816406 295.742188 607.058594 295.035156 C 608.300781 294.332031 609.199219 293.359375 609.753906 292.117188 C 610.3125 290.875 610.589844 289.253906 610.589844 287.25 C 610.589844 285.25 610.3125 283.628906 609.753906 282.386719 C 609.199219 281.144531 608.300781 280.179688 607.058594 279.496094 C 605.816406 278.808594 604.195312 278.347656 602.195312 278.105469 C 600.191406 277.863281 597.746094 277.742188 594.851562 277.742188 C 591.960938 277.742188 589.515625 277.863281 587.511719 278.105469 C 585.511719 278.347656 583.890625 278.808594 582.648438 279.496094 C 581.40625 280.179688 580.507812 281.144531 579.953125 282.386719 C 579.394531 283.628906 579.117188 285.25 579.117188 287.25 C 579.117188 289.253906 579.394531 290.875 579.953125 292.117188 C 580.507812 293.359375 581.40625 294.332031 582.648438 295.035156 C 583.890625 295.742188 585.511719 296.214844 587.511719 296.453125 C 589.515625 296.695312 591.960938 296.816406 594.851562 296.816406 M 594.851562 268.066406 C 603.898438 268.066406 610.691406 269.605469 615.234375 272.683594 C 619.773438 275.761719 622.042969 280.617188 622.042969 287.25 C 622.042969 293.925781 619.78125 298.800781 615.261719 301.875 C 610.738281 304.953125 603.933594 306.492188 594.851562 306.492188 C 585.734375 306.492188 578.921875 304.953125 574.417969 301.875 C 569.914062 298.800781 567.664062 293.925781 567.664062 287.25 C 567.664062 280.617188 569.921875 275.761719 574.445312 272.683594 C 578.96875 269.605469 585.769531 268.066406 594.851562 268.066406 " />
<path fill-rule="nonzero" fill="rgb(13.729858%, 12.159729%, 12.548828%)" fill-opacity="1" d="M 639.449219 291.199219 L 639.449219 296.316406 L 660.632812 296.316406 C 661.894531 296.316406 662.804688 296.09375 663.359375 295.648438 C 663.914062 295.203125 664.191406 294.554688 664.191406 293.703125 C 664.191406 292.886719 663.914062 292.265625 663.359375 291.839844 C 662.804688 291.414062 661.894531 291.199219 660.632812 291.199219 Z M 669.863281 286.75 C 671.496094 287.234375 672.875 288.179688 674.007812 289.589844 C 675.136719 290.996094 675.703125 292.8125 675.703125 295.035156 C 675.703125 296.59375 675.460938 298.03125 674.980469 299.347656 C 674.5 300.664062 673.683594 301.800781 672.535156 302.765625 C 671.386719 303.730469 669.835938 304.488281 667.890625 305.046875 C 665.945312 305.601562 663.507812 305.878906 660.578125 305.878906 L 627.882812 305.878906 L 627.882812 283.25 L 660.800781 283.25 C 661.652344 283.25 662.402344 283.074219 663.054688 282.71875 C 663.703125 282.367188 664.027344 281.710938 664.027344 280.746094 C 664.027344 279.820312 663.695312 279.191406 663.027344 278.855469 C 662.359375 278.523438 661.617188 278.355469 660.800781 278.355469 L 627.882812 278.355469 L 635.667969 268.679688 L 660.300781 268.679688 C 662.523438 268.679688 664.535156 268.894531 666.335938 269.320312 C 668.132812 269.746094 669.671875 270.394531 670.949219 271.265625 C 672.226562 272.136719 673.210938 273.210938 673.898438 274.492188 C 674.582031 275.769531 674.925781 277.261719 674.925781 278.96875 C 674.925781 280.078125 674.777344 281.0625 674.480469 281.914062 C 674.183594 282.765625 673.804688 283.519531 673.339844 284.167969 C 672.875 284.816406 672.339844 285.351562 671.726562 285.777344 C 671.117188 286.207031 670.496094 286.527344 669.863281 286.75 " />
<path fill-rule="nonzero" fill="rgb(13.729858%, 12.159729%, 12.548828%)" fill-opacity="1" d="M 693.164062 305.878906 L 681.652344 305.878906 L 681.652344 268.679688 L 693.164062 268.679688 Z M 693.164062 305.878906 " />
<path fill-rule="nonzero" fill="rgb(13.729858%, 12.159729%, 12.548828%)" fill-opacity="1" d="M 740.648438 296.316406 L 733.199219 305.878906 L 700.335938 305.878906 L 700.335938 268.679688 L 711.84375 268.679688 L 711.84375 296.316406 Z M 740.648438 296.316406 " />
<path fill-rule="nonzero" fill="rgb(13.729858%, 12.159729%, 12.548828%)" fill-opacity="1" d="M 787.691406 296.316406 L 780.296875 305.878906 L 744.488281 305.878906 L 744.488281 268.679688 L 787.582031 268.679688 L 780.128906 278.355469 L 756.050781 278.355469 L 756.050781 282.804688 L 785.523438 282.804688 L 778.90625 291.253906 L 756.050781 291.253906 L 756.050781 296.316406 Z M 787.691406 296.316406 " />
<path fill-rule="nonzero" fill="rgb(13.729858%, 12.159729%, 12.548828%)" fill-opacity="1" d="M 103.800781 268.679688 L 96.347656 278.355469 L 83.058594 278.355469 L 83.058594 305.878906 L 71.546875 305.878906 L 71.546875 278.355469 L 54.089844 278.355469 L 61.539062 268.679688 Z M 103.800781 268.679688 " />
<path fill-rule="nonzero" fill="rgb(13.729858%, 12.159729%, 12.548828%)" fill-opacity="1" d="M 155.625 289.644531 C 155.625 300.875 147.894531 306.492188 132.4375 306.492188 C 127.949219 306.492188 124.09375 306.140625 120.871094 305.433594 C 117.644531 304.730469 114.984375 303.675781 112.890625 302.265625 C 110.796875 300.855469 109.257812 299.105469 108.277344 297.011719 C 107.292969 294.917969 106.800781 292.460938 106.800781 289.644531 L 106.800781 268.679688 L 118.257812 268.679688 L 118.257812 289.644531 C 118.257812 291.015625 118.441406 292.164062 118.8125 293.089844 C 119.183594 294.015625 119.878906 294.769531 120.898438 295.34375 C 121.917969 295.917969 123.355469 296.324219 125.207031 296.566406 C 127.058594 296.808594 129.46875 296.925781 132.4375 296.925781 C 134.660156 296.925781 136.515625 296.796875 137.996094 296.539062 C 139.480469 296.277344 140.664062 295.851562 141.554688 295.257812 C 142.445312 294.667969 143.085938 293.90625 143.472656 292.980469 C 143.863281 292.054688 144.058594 290.941406 144.058594 289.644531 L 144.058594 268.679688 L 155.625 268.679688 Z M 155.625 289.644531 " />
<path fill-rule="nonzero" fill="rgb(13.729858%, 12.159729%, 12.548828%)" fill-opacity="1" d="M 199.832031 306.492188 C 199.089844 306.492188 198.355469 306.371094 197.632812 306.128906 C 196.910156 305.886719 196.105469 305.34375 195.214844 304.488281 L 172.417969 284.027344 L 172.417969 305.878906 L 161.964844 305.878906 L 161.964844 275.019531 C 161.964844 273.796875 162.140625 272.738281 162.492188 271.847656 C 162.84375 270.957031 163.304688 270.238281 163.882812 269.679688 C 164.457031 269.125 165.125 268.714844 165.882812 268.457031 C 166.640625 268.199219 167.429688 268.066406 168.246094 268.066406 C 168.949219 268.066406 169.664062 268.1875 170.386719 268.429688 C 171.109375 268.671875 171.933594 269.21875 172.859375 270.070312 L 195.660156 290.53125 L 195.660156 268.679688 L 206.167969 268.679688 L 206.167969 299.484375 C 206.167969 300.707031 205.992188 301.765625 205.640625 302.65625 C 205.289062 303.542969 204.824219 304.277344 204.25 304.851562 C 203.675781 305.425781 203 305.84375 202.222656 306.101562 C 201.441406 306.359375 200.644531 306.492188 199.832031 306.492188 " />
<path fill-rule="nonzero" fill="rgb(13.729858%, 12.159729%, 12.548828%)" fill-opacity="1" d="M 260.273438 296.316406 L 252.878906 305.878906 L 234.195312 305.878906 C 230.96875 305.878906 227.984375 305.398438 225.242188 304.433594 C 222.496094 303.46875 220.132812 302.144531 218.152344 300.457031 C 216.167969 298.769531 214.609375 296.769531 213.480469 294.453125 C 212.347656 292.136719 211.785156 289.625 211.785156 286.917969 C 211.785156 284.210938 212.347656 281.738281 213.480469 279.496094 C 214.609375 277.253906 216.167969 275.324219 218.152344 273.710938 C 220.132812 272.097656 222.496094 270.859375 225.242188 269.984375 C 227.984375 269.117188 230.96875 268.679688 234.195312 268.679688 L 260.273438 268.679688 L 252.878906 278.355469 L 234.195312 278.355469 C 232.636719 278.355469 231.191406 278.578125 229.855469 279.023438 C 228.523438 279.46875 227.371094 280.089844 226.410156 280.886719 C 225.445312 281.683594 224.683594 282.636719 224.128906 283.75 C 223.574219 284.859375 223.296875 286.082031 223.296875 287.417969 C 223.296875 288.753906 223.5625 289.96875 224.101562 291.058594 C 224.636719 292.15625 225.398438 293.089844 226.382812 293.867188 C 227.363281 294.648438 228.523438 295.25 229.855469 295.675781 C 231.191406 296.101562 232.636719 296.316406 234.195312 296.316406 Z M 260.273438 296.316406 " />
<path fill-rule="nonzero" fill="rgb(13.729858%, 12.159729%, 12.548828%)" fill-opacity="1" d="M 301.308594 305.878906 L 308.257812 296.316406 L 321.078125 296.316406 C 322.28125 296.316406 323.328125 296.351562 324.21875 296.425781 C 323.699219 295.757812 323.097656 294.914062 322.410156 293.898438 C 321.726562 292.878906 321.066406 291.921875 320.4375 291.03125 L 313.765625 281.191406 L 296.304688 305.878906 L 282.679688 305.878906 L 306.535156 272.238281 C 307.316406 271.164062 308.296875 270.199219 309.484375 269.347656 C 310.667969 268.496094 312.171875 268.066406 313.988281 268.066406 C 315.730469 268.066406 317.183594 268.464844 318.351562 269.261719 C 319.519531 270.0625 320.511719 271.054688 321.328125 272.238281 L 344.570312 305.878906 Z M 301.308594 305.878906 " />
<path fill-rule="nonzero" fill="rgb(13.729858%, 12.159729%, 12.548828%)" fill-opacity="1" d="M 392.613281 289.644531 C 392.613281 300.875 384.886719 306.492188 369.425781 306.492188 C 364.941406 306.492188 361.085938 306.140625 357.859375 305.433594 C 354.636719 304.730469 351.976562 303.675781 349.878906 302.265625 C 347.785156 300.855469 346.246094 299.105469 345.265625 297.011719 C 344.28125 294.917969 343.792969 292.460938 343.792969 289.644531 L 343.792969 268.679688 L 355.246094 268.679688 L 355.246094 289.644531 C 355.246094 291.015625 355.433594 292.164062 355.800781 293.089844 C 356.171875 294.015625 356.867188 294.769531 357.886719 295.34375 C 358.90625 295.917969 360.34375 296.324219 362.199219 296.566406 C 364.050781 296.808594 366.460938 296.925781 369.425781 296.925781 C 371.652344 296.925781 373.503906 296.796875 374.988281 296.539062 C 376.46875 296.277344 377.65625 295.851562 378.546875 295.257812 C 379.4375 294.667969 380.074219 293.90625 380.464844 292.980469 C 380.851562 292.054688 381.046875 290.941406 381.046875 289.644531 L 381.046875 268.679688 L 392.613281 268.679688 Z M 392.613281 289.644531 " />
<path fill-rule="nonzero" fill="rgb(13.729858%, 12.159729%, 12.548828%)" fill-opacity="1" d="M 445.328125 268.679688 L 437.875 278.355469 L 424.585938 278.355469 L 424.585938 305.878906 L 413.074219 305.878906 L 413.074219 278.355469 L 395.617188 278.355469 L 403.066406 268.679688 Z M 445.328125 268.679688 " />
<path fill-rule="nonzero" fill="rgb(13.729858%, 12.159729%, 12.548828%)" fill-opacity="1" d="M 469.574219 296.816406 C 472.464844 296.816406 474.910156 296.695312 476.914062 296.453125 C 478.914062 296.214844 480.535156 295.742188 481.777344 295.035156 C 483.019531 294.332031 483.917969 293.359375 484.472656 292.117188 C 485.03125 290.875 485.308594 289.253906 485.308594 287.25 C 485.308594 285.25 485.03125 283.628906 484.472656 282.386719 C 483.917969 281.144531 483.019531 280.179688 481.777344 279.496094 C 480.535156 278.808594 478.914062 278.347656 476.914062 278.105469 C 474.910156 277.863281 472.464844 277.742188 469.574219 277.742188 C 466.679688 277.742188 464.234375 277.863281 462.234375 278.105469 C 460.230469 278.347656 458.609375 278.808594 457.367188 279.496094 C 456.125 280.179688 455.226562 281.144531 454.671875 282.386719 C 454.113281 283.628906 453.835938 285.25 453.835938 287.25 C 453.835938 289.253906 454.113281 290.875 454.671875 292.117188 C 455.226562 293.359375 456.125 294.332031 457.367188 295.035156 C 458.609375 295.742188 460.230469 296.214844 462.234375 296.453125 C 464.234375 296.695312 466.679688 296.816406 469.574219 296.816406 M 469.574219 268.066406 C 478.617188 268.066406 485.410156 269.605469 489.953125 272.683594 C 494.492188 275.761719 496.761719 280.617188 496.761719 287.25 C 496.761719 293.925781 494.503906 298.800781 489.980469 301.875 C 485.457031 304.953125 478.65625 306.492188 469.574219 306.492188 C 460.453125 306.492188 453.640625 304.953125 449.136719 301.875 C 444.632812 298.800781 442.382812 293.925781 442.382812 287.25 C 442.382812 280.617188 444.640625 275.761719 449.164062 272.683594 C 453.6875 269.605469 460.488281 268.066406 469.574219 268.066406 " />
<path fill-rule="nonzero" fill="rgb(13.729858%, 12.159729%, 12.548828%)" fill-opacity="1" d="M 526.679688 282.523438 C 527.496094 283.972656 528.210938 285.242188 528.820312 286.335938 C 529.433594 287.425781 529.96875 288.402344 530.433594 289.253906 C 530.894531 290.105469 531.304688 290.882812 531.65625 291.589844 C 532.007812 292.292969 532.351562 292.980469 532.6875 293.648438 C 532.980469 292.980469 533.304688 292.304688 533.660156 291.617188 C 534.011719 290.929688 534.417969 290.152344 534.882812 289.28125 C 535.34375 288.410156 535.882812 287.4375 536.496094 286.359375 C 537.105469 285.289062 537.820312 284.027344 538.636719 282.582031 L 544.585938 272.015625 C 545.253906 270.828125 546.09375 269.875 547.117188 269.152344 C 548.132812 268.429688 549.402344 268.066406 550.925781 268.066406 C 552.371094 268.066406 553.675781 268.484375 554.84375 269.320312 C 556.011719 270.152344 556.855469 271.441406 557.375 273.183594 L 566.769531 305.878906 L 555.316406 305.878906 L 551.8125 292.925781 C 551.21875 290.8125 550.71875 288.957031 550.3125 287.363281 C 549.902344 285.769531 549.550781 284.210938 549.253906 282.691406 C 548.625 283.988281 547.921875 285.425781 547.144531 287 C 546.363281 288.578125 545.34375 290.570312 544.085938 292.980469 L 539.082031 302.320312 C 538.597656 303.246094 538.105469 303.980469 537.605469 304.515625 C 537.105469 305.054688 536.597656 305.472656 536.078125 305.769531 C 535.558594 306.066406 535.003906 306.261719 534.410156 306.351562 C 533.816406 306.445312 533.167969 306.492188 532.464844 306.492188 C 531.757812 306.492188 531.109375 306.445312 530.515625 306.351562 C 529.921875 306.261719 529.367188 306.066406 528.847656 305.769531 C 528.328125 305.472656 527.820312 305.054688 527.320312 304.515625 C 526.820312 303.980469 526.328125 303.246094 525.84375 302.320312 L 520.839844 292.925781 C 520.175781 291.664062 519.582031 290.53125 519.0625 289.53125 C 518.542969 288.53125 518.070312 287.632812 517.644531 286.835938 C 517.21875 286.039062 516.847656 285.304688 516.53125 284.636719 C 516.21875 283.972656 515.910156 283.324219 515.613281 282.691406 C 515.316406 284.175781 514.964844 285.722656 514.558594 287.335938 C 514.148438 288.949219 513.667969 290.8125 513.113281 292.925781 L 509.609375 305.878906 L 498.320312 305.878906 L 507.941406 273.183594 C 508.460938 271.441406 509.3125 270.152344 510.5 269.320312 C 511.683594 268.484375 513 268.066406 514.445312 268.066406 C 515.929688 268.066406 517.179688 268.421875 518.199219 269.125 C 519.21875 269.828125 520.0625 270.792969 520.730469 272.015625 Z M 526.679688 282.523438 " />
<path fill-rule="nonzero" fill="rgb(13.729858%, 12.159729%, 12.548828%)" fill-opacity="1" d="M 594.851562 296.816406 C 597.746094 296.816406 600.191406 296.695312 602.195312 296.453125 C 604.195312 296.214844 605.816406 295.742188 607.058594 295.035156 C 608.300781 294.332031 609.199219 293.359375 609.753906 292.117188 C 610.3125 290.875 610.589844 289.253906 610.589844 287.25 C 610.589844 285.25 610.3125 283.628906 609.753906 282.386719 C 609.199219 281.144531 608.300781 280.179688 607.058594 279.496094 C 605.816406 278.808594 604.195312 278.347656 602.195312 278.105469 C 600.191406 277.863281 597.746094 277.742188 594.851562 277.742188 C 591.960938 277.742188 589.515625 277.863281 587.511719 278.105469 C 585.511719 278.347656 583.890625 278.808594 582.648438 279.496094 C 581.40625 280.179688 580.507812 281.144531 579.953125 282.386719 C 579.394531 283.628906 579.117188 285.25 579.117188 287.25 C 579.117188 289.253906 579.394531 290.875 579.953125 292.117188 C 580.507812 293.359375 581.40625 294.332031 582.648438 295.035156 C 583.890625 295.742188 585.511719 296.214844 587.511719 296.453125 C 589.515625 296.695312 591.960938 296.816406 594.851562 296.816406 M 594.851562 268.066406 C 603.898438 268.066406 610.691406 269.605469 615.234375 272.683594 C 619.773438 275.761719 622.042969 280.617188 622.042969 287.25 C 622.042969 293.925781 619.78125 298.800781 615.261719 301.875 C 610.738281 304.953125 603.933594 306.492188 594.851562 306.492188 C 585.734375 306.492188 578.921875 304.953125 574.417969 301.875 C 569.914062 298.800781 567.664062 293.925781 567.664062 287.25 C 567.664062 280.617188 569.921875 275.761719 574.445312 272.683594 C 578.96875 269.605469 585.769531 268.066406 594.851562 268.066406 " />
<path fill-rule="nonzero" fill="rgb(13.729858%, 12.159729%, 12.548828%)" fill-opacity="1" d="M 639.449219 291.199219 L 639.449219 296.316406 L 660.632812 296.316406 C 661.894531 296.316406 662.804688 296.09375 663.359375 295.648438 C 663.914062 295.203125 664.191406 294.554688 664.191406 293.703125 C 664.191406 292.886719 663.914062 292.265625 663.359375 291.839844 C 662.804688 291.414062 661.894531 291.199219 660.632812 291.199219 Z M 669.863281 286.75 C 671.496094 287.234375 672.875 288.179688 674.007812 289.585938 C 675.136719 290.996094 675.703125 292.8125 675.703125 295.035156 C 675.703125 296.59375 675.460938 298.03125 674.980469 299.347656 C 674.5 300.664062 673.683594 301.800781 672.535156 302.765625 C 671.386719 303.730469 669.835938 304.488281 667.890625 305.046875 C 665.945312 305.601562 663.507812 305.878906 660.578125 305.878906 L 627.882812 305.878906 L 627.882812 283.25 L 660.800781 283.25 C 661.652344 283.25 662.402344 283.074219 663.054688 282.71875 C 663.703125 282.367188 664.027344 281.710938 664.027344 280.746094 C 664.027344 279.820312 663.695312 279.1875 663.027344 278.855469 C 662.359375 278.523438 661.617188 278.355469 660.800781 278.355469 L 627.882812 278.355469 L 635.667969 268.679688 L 660.300781 268.679688 C 662.523438 268.679688 664.535156 268.894531 666.335938 269.320312 C 668.132812 269.746094 669.671875 270.394531 670.949219 271.265625 C 672.226562 272.136719 673.210938 273.210938 673.898438 274.488281 C 674.582031 275.769531 674.925781 277.261719 674.925781 278.964844 C 674.925781 280.078125 674.777344 281.0625 674.480469 281.914062 C 674.183594 282.765625 673.804688 283.519531 673.339844 284.167969 C 672.875 284.816406 672.339844 285.351562 671.726562 285.777344 C 671.117188 286.203125 670.496094 286.527344 669.863281 286.75 " />
<path fill-rule="nonzero" fill="rgb(13.729858%, 12.159729%, 12.548828%)" fill-opacity="1" d="M 693.164062 305.878906 L 681.652344 305.878906 L 681.652344 268.679688 L 693.164062 268.679688 Z M 693.164062 305.878906 " />
<path fill-rule="nonzero" fill="rgb(13.729858%, 12.159729%, 12.548828%)" fill-opacity="1" d="M 740.648438 296.316406 L 733.199219 305.878906 L 700.335938 305.878906 L 700.335938 268.679688 L 711.84375 268.679688 L 711.84375 296.316406 Z M 740.648438 296.316406 " />
<path fill-rule="nonzero" fill="rgb(13.729858%, 12.159729%, 12.548828%)" fill-opacity="1" d="M 787.691406 296.316406 L 780.296875 305.878906 L 744.488281 305.878906 L 744.488281 268.679688 L 787.582031 268.679688 L 780.128906 278.355469 L 756.050781 278.355469 L 756.050781 282.804688 L 785.523438 282.804688 L 778.90625 291.253906 L 756.050781 291.253906 L 756.050781 296.316406 Z M 787.691406 296.316406 " />
<path fill-rule="nonzero" fill="rgb(13.729858%, 12.159729%, 12.548828%)" fill-opacity="1" d="M 445 164.511719 C 447.046875 164.511719 449.097656 164.382812 451.132812 164.539062 C 454.222656 164.777344 455.671875 163.480469 456.804688 160.519531 C 458.152344 156.992188 459.820312 153.09375 462.53125 150.679688 C 469.183594 144.75 476.507812 139.574219 483.578125 134.113281 C 486.265625 132.039062 489.203125 130.242188 491.65625 127.921875 C 494.523438 125.210938 494.832031 120.542969 492.671875 117.972656 C 492.148438 117.347656 491.246094 116.789062 490.472656 116.722656 C 490.0625 116.6875 489.308594 117.707031 489.128906 118.367188 C 487.59375 124.050781 483.476562 127.296875 478.460938 129.550781 C 471.015625 132.898438 463.378906 135.835938 456 139.328125 C 446.984375 143.589844 440.535156 150.734375 435.542969 159.195312 C 433.15625 163.242188 433.941406 164.429688 438.53125 164.503906 C 440.6875 164.539062 442.84375 164.507812 445 164.511719 M 508.710938 166.167969 C 527.871094 166.925781 546.503906 163.210938 565.164062 159.757812 C 568.632812 159.117188 569.121094 158.070312 567.269531 155.167969 C 564.40625 150.667969 561.597656 146.097656 558.308594 141.917969 C 551.242188 132.9375 543.320312 124.851562 532.851562 119.714844 C 522.230469 114.503906 510.769531 112.953125 499.1875 111.960938 C 498.191406 111.875 497.132812 112.535156 496.101562 112.847656 C 496.605469 113.875 496.910156 115.085938 497.652344 115.898438 C 501.320312 119.898438 501.796875 123.160156 498.441406 127.445312 C 496.011719 130.558594 492.855469 133.085938 490.25 136.074219 C 486.539062 140.332031 482.496094 144.441406 479.566406 149.210938 C 474.363281 157.675781 477.453125 163.945312 487.296875 165.109375 C 494.378906 165.945312 501.570312 165.847656 508.710938 166.167969 M 488.992188 194.335938 C 498.839844 187.980469 508.6875 181.628906 518.539062 175.273438 C 460.339844 170.449219 402.164062 170.335938 343.789062 175.179688 C 353.761719 181.679688 363.730469 188.175781 373.699219 194.675781 C 373.542969 194.949219 373.382812 195.226562 373.226562 195.503906 C 369.082031 193.722656 365.003906 191.765625 360.785156 190.183594 C 343.980469 183.878906 327.214844 177.472656 310.285156 171.523438 C 294.601562 166.011719 278.253906 164.160156 261.691406 163.347656 C 253.105469 162.925781 244.566406 161.285156 236.039062 159.980469 C 232.78125 159.484375 228.972656 158.640625 228.375 154.808594 C 227.78125 151.007812 230.878906 148.496094 233.835938 146.847656 C 242.074219 142.253906 251.074219 140.703125 260.441406 141.25 C 263.886719 141.449219 266.152344 143.191406 267.058594 146.617188 C 268.484375 152.003906 272.105469 154.957031 277.425781 156.328125 C 280.445312 157.105469 282.316406 156.433594 284.539062 154.113281 C 293.964844 144.285156 303.25 134.242188 313.433594 125.246094 C 325.605469 114.492188 340.933594 110.003906 356.472656 106.546875 C 372.050781 103.078125 387.859375 101.183594 403.796875 101.007812 C 425.835938 100.769531 447.910156 100.292969 469.90625 101.300781 C 483.898438 101.9375 497.90625 104.433594 511.671875 107.246094 C 531.953125 111.390625 548.316406 122.75 562.4375 137.542969 C 567.695312 143.054688 573.035156 148.492188 578.0625 154.207031 C 580.207031 156.644531 582.296875 157.15625 585.253906 156.285156 C 590.292969 154.808594 594.105469 152.179688 595.332031 146.757812 C 596.421875 141.949219 600.421875 140.707031 604.226562 140.914062 C 612.605469 141.363281 621.058594 142.226562 628.484375 146.769531 C 630.085938 147.753906 631.550781 149.160156 632.683594 150.667969 C 635.339844 154.207031 634.636719 157.386719 630.410156 158.679688 C 625.675781 160.132812 620.691406 160.976562 615.753906 161.535156 C 606.382812 162.59375 596.972656 163.316406 587.574219 164.085938 C 567.980469 165.683594 549.460938 171.570312 531.261719 178.488281 C 518.203125 183.449219 505.398438 189.089844 492.484375 194.425781 C 491.5625 194.808594 490.644531 195.203125 489.722656 195.589844 C 489.480469 195.171875 489.234375 194.753906 488.992188 194.335938 " />
<path fill-rule="nonzero" fill="rgb(13.729858%, 12.159729%, 12.548828%)" fill-opacity="1" d="M 320.660156 226.019531 C 313.140625 225.183594 305.582031 224.597656 298.105469 223.457031 C 284.863281 221.441406 271.53125 219.699219 258.941406 214.707031 C 254.074219 212.777344 249.890625 209.917969 247.140625 205.359375 C 242.949219 198.410156 244.753906 189.574219 251.265625 184.632812 C 254.386719 182.265625 258.175781 182.441406 261.65625 185.054688 C 270.558594 191.730469 279.25 198.722656 288.457031 204.953125 C 298.226562 211.566406 308.488281 217.445312 318.535156 223.648438 C 319.339844 224.148438 320.125 224.6875 320.917969 225.210938 C 320.832031 225.480469 320.746094 225.75 320.660156 226.019531 " />
<path fill-rule="nonzero" fill="rgb(13.729858%, 12.159729%, 12.548828%)" fill-opacity="1" d="M 542.542969 224.730469 C 547.582031 221.726562 552.808594 218.992188 557.628906 215.671875 C 571.550781 206.074219 585.308594 196.246094 599.125 186.503906 C 600.332031 185.652344 601.414062 184.320312 602.738281 184.015625 C 604.835938 183.53125 607.753906 182.785156 609.164062 183.789062 C 617.859375 189.972656 622.554688 201.125 611.882812 209.539062 C 606.570312 213.730469 600.585938 216.511719 594.070312 217.683594 C 578.210938 220.542969 562.28125 222.992188 546.375 225.5625 C 545.1875 225.753906 543.941406 225.585938 542.722656 225.585938 C 542.660156 225.300781 542.601562 225.015625 542.542969 224.730469 " />
<path fill-rule="nonzero" fill="rgb(13.729858%, 12.159729%, 12.548828%)" fill-opacity="1" d="M 72.027344 342.054688 L 88.15625 342.054688 L 88.15625 357.808594 L 70.859375 357.808594 C 62.113281 357.808594 55.671875 352.269531 55.671875 344.957031 C 55.671875 337.570312 62.113281 332.597656 70.859375 332.597656 L 88.910156 332.597656 L 83.863281 339.15625 L 70.859375 339.15625 C 66.636719 339.15625 63.433594 341.71875 63.433594 345.296875 C 63.433594 348.953125 66.523438 351.328125 70.859375 351.328125 L 80.394531 351.328125 L 80.394531 347.671875 L 67.355469 347.671875 Z M 72.027344 342.054688 " />
<path fill-rule="nonzero" fill="rgb(13.729858%, 12.159729%, 12.548828%)" fill-opacity="1" d="M 121.929688 351.328125 L 116.917969 357.8125 L 92.644531 357.8125 L 92.644531 332.597656 L 121.855469 332.597656 L 116.804688 339.15625 L 100.484375 339.15625 L 100.484375 342.167969 L 120.460938 342.167969 L 115.976562 347.898438 L 100.484375 347.898438 L 100.484375 351.328125 Z M 121.929688 351.328125 " />
<path fill-rule="nonzero" fill="rgb(13.729858%, 12.159729%, 12.548828%)" fill-opacity="1" d="M 132.449219 347.859375 L 132.449219 351.328125 L 146.808594 351.328125 C 148.503906 351.328125 149.21875 350.722656 149.21875 349.554688 C 149.21875 348.464844 148.503906 347.859375 146.808594 347.859375 Z M 157.023438 350.460938 C 157.023438 354.644531 154.722656 357.8125 146.769531 357.8125 L 124.609375 357.8125 L 124.609375 342.472656 L 146.921875 342.472656 C 148.050781 342.472656 149.105469 342.054688 149.105469 340.773438 C 149.105469 339.53125 148.015625 339.15625 146.921875 339.15625 L 124.609375 339.15625 L 129.886719 332.597656 L 146.582031 332.597656 C 152.609375 332.597656 156.492188 334.933594 156.492188 339.570312 C 156.492188 342.546875 154.796875 344.203125 153.066406 344.84375 C 155.25 345.484375 157.023438 347.445312 157.023438 350.460938 " />
<path fill-rule="nonzero" fill="rgb(13.729858%, 12.159729%, 12.548828%)" fill-opacity="1" d="M 196.710938 357.8125 L 186.269531 357.8125 L 180.65625 351.140625 L 168.671875 351.140625 L 168.671875 357.8125 L 160.867188 357.8125 L 160.867188 344.921875 L 182.804688 344.921875 C 185.214844 344.921875 187.101562 343.828125 187.101562 342.09375 C 187.101562 340.132812 185.480469 339.15625 182.804688 339.15625 L 160.867188 339.15625 L 165.957031 332.597656 L 182.164062 332.597656 C 187.890625 332.597656 195.128906 334.40625 195.128906 341.605469 C 195.128906 345.523438 192.679688 348.765625 188.53125 349.59375 C 189.398438 350.234375 190.339844 351.140625 192.074219 352.910156 Z M 196.710938 357.8125 " />
<path fill-rule="nonzero" fill="rgb(13.729858%, 12.159729%, 12.548828%)" fill-opacity="1" d="M 210.167969 357.8125 L 214.882812 351.328125 L 221.210938 351.328125 C 222.71875 351.328125 224.492188 351.328125 225.699219 351.402344 C 225.019531 350.5 223.964844 348.953125 223.132812 347.75 L 218.613281 341.074219 L 206.777344 357.8125 L 197.542969 357.8125 L 213.710938 335.007812 C 214.769531 333.539062 216.3125 332.183594 218.761719 332.183594 C 221.097656 332.183594 222.644531 333.425781 223.738281 335.007812 L 239.492188 357.8125 Z M 210.167969 357.8125 " />
<path fill-rule="nonzero" fill="rgb(13.729858%, 12.159729%, 12.548828%)" fill-opacity="1" d="M 272.058594 346.804688 C 272.058594 354.417969 266.820312 358.226562 256.34375 358.226562 C 244.207031 358.226562 238.96875 354.417969 238.96875 346.804688 L 238.96875 332.597656 L 246.730469 332.597656 L 246.730469 346.804688 C 246.730469 350.535156 248.3125 351.742188 256.34375 351.742188 C 262.335938 351.742188 264.21875 350.347656 264.21875 346.804688 L 264.21875 332.597656 L 272.058594 332.597656 Z M 272.058594 346.804688 " />
<path fill-rule="nonzero" fill="rgb(13.729858%, 12.159729%, 12.548828%)" fill-opacity="1" d="M 308.546875 351.328125 L 303.53125 357.8125 L 290.867188 357.8125 C 282.125 357.8125 275.679688 352.269531 275.679688 344.957031 C 275.679688 337.570312 282.125 332.597656 290.867188 332.597656 L 308.546875 332.597656 L 303.53125 339.15625 L 290.867188 339.15625 C 286.648438 339.15625 283.480469 341.679688 283.480469 345.296875 C 283.480469 348.878906 286.609375 351.328125 290.867188 351.328125 Z M 308.546875 351.328125 " />
<path fill-rule="nonzero" fill="rgb(13.729858%, 12.159729%, 12.548828%)" fill-opacity="1" d="M 341.863281 357.8125 L 334.101562 357.8125 L 334.101562 348.085938 L 319.101562 348.085938 L 319.101562 357.8125 L 311.261719 357.8125 L 311.261719 332.597656 L 319.101562 332.597656 L 319.101562 341.527344 L 334.101562 341.527344 L 334.101562 332.597656 L 341.863281 332.597656 Z M 341.863281 357.8125 " />
<path fill-rule="nonzero" fill="rgb(13.729858%, 12.159729%, 12.548828%)" fill-opacity="1" d="M 377.972656 332.597656 L 372.921875 339.15625 L 363.917969 339.15625 L 363.917969 357.8125 L 356.113281 357.8125 L 356.113281 339.15625 L 344.28125 339.15625 L 349.332031 332.597656 Z M 377.972656 332.597656 " />
<path fill-rule="nonzero" fill="rgb(13.729858%, 12.159729%, 12.548828%)" fill-opacity="1" d="M 405.640625 348.425781 C 403.453125 344.542969 402.4375 342.660156 401.570312 340.851562 C 400.777344 342.660156 399.761719 344.507812 397.574219 348.390625 L 393.542969 355.550781 C 392.636719 357.171875 391.28125 358.226562 389.246094 358.226562 C 387.285156 358.226562 385.550781 357.09375 384.875 354.757812 L 378.464844 332.597656 L 386.265625 332.597656 L 388.640625 341.378906 C 389.433594 344.203125 389.960938 346.277344 390.339844 348.3125 C 391.167969 346.542969 392.148438 344.621094 393.882812 341.339844 L 397.273438 335.007812 C 398.589844 332.519531 399.875 332.179688 401.71875 332.179688 C 403.605469 332.179688 404.921875 332.519531 406.242188 335.007812 L 409.597656 341.378906 C 411.484375 344.84375 412.347656 346.617188 413.140625 348.3125 C 413.554688 346.316406 414.121094 344.167969 414.875 341.378906 L 417.25 332.597656 L 424.863281 332.597656 L 418.339844 354.757812 C 417.664062 357.09375 415.929688 358.226562 413.96875 358.226562 C 411.972656 358.226562 410.613281 357.207031 409.671875 355.550781 Z M 405.640625 348.425781 " />
<path fill-rule="nonzero" fill="rgb(13.729858%, 12.159729%, 12.548828%)" fill-opacity="1" d="M 434.25 357.8125 L 438.960938 351.328125 L 445.292969 351.328125 C 446.800781 351.328125 448.570312 351.328125 449.777344 351.402344 C 449.097656 350.5 448.042969 348.953125 447.214844 347.75 L 442.691406 341.074219 L 430.859375 357.8125 L 421.625 357.8125 L 437.792969 335.007812 C 438.847656 333.539062 440.394531 332.183594 442.84375 332.183594 C 445.179688 332.183594 446.726562 333.425781 447.816406 335.007812 L 463.570312 357.8125 Z M 434.25 357.8125 " />
<path fill-rule="nonzero" fill="rgb(13.729858%, 12.159729%, 12.548828%)" fill-opacity="1" d="M 478.050781 342.054688 L 494.179688 342.054688 L 494.179688 357.808594 L 476.878906 357.808594 C 468.136719 357.808594 461.691406 352.269531 461.691406 344.957031 C 461.691406 337.570312 468.136719 332.597656 476.878906 332.597656 L 494.933594 332.597656 L 489.882812 339.15625 L 476.878906 339.15625 C 472.660156 339.15625 469.457031 341.71875 469.457031 345.296875 C 469.457031 348.953125 472.546875 351.328125 476.878906 351.328125 L 486.414062 351.328125 L 486.414062 347.671875 L 473.375 347.671875 Z M 478.050781 342.054688 " />
<path fill-rule="nonzero" fill="rgb(13.729858%, 12.159729%, 12.548828%)" fill-opacity="1" d="M 527.953125 351.328125 L 522.9375 357.8125 L 498.667969 357.8125 L 498.667969 332.597656 L 527.878906 332.597656 L 522.828125 339.15625 L 506.507812 339.15625 L 506.507812 342.167969 L 526.480469 342.167969 L 521.996094 347.898438 L 506.507812 347.898438 L 506.507812 351.328125 Z M 527.953125 351.328125 " />
<path fill-rule="nonzero" fill="rgb(13.729858%, 12.159729%, 12.548828%)" fill-opacity="1" d="M 553.054688 356.867188 L 537.601562 343 L 537.601562 357.808594 L 530.519531 357.808594 L 530.519531 336.894531 C 530.519531 333.539062 532.554688 332.183594 534.777344 332.183594 C 535.71875 332.183594 536.660156 332.410156 537.90625 333.539062 L 553.359375 347.40625 L 553.359375 332.597656 L 560.480469 332.597656 L 560.480469 353.476562 C 560.480469 356.832031 558.445312 358.226562 556.183594 358.226562 C 555.203125 358.226562 554.261719 358 553.054688 356.867188 " />
<path fill-rule="nonzero" fill="rgb(13.729858%, 12.159729%, 12.548828%)" fill-opacity="1" d="M 610.121094 357.8125 L 602.355469 357.8125 L 602.355469 348.085938 L 587.355469 348.085938 L 587.355469 357.8125 L 579.515625 357.8125 L 579.515625 332.597656 L 587.355469 332.597656 L 587.355469 341.527344 L 602.355469 341.527344 L 602.355469 332.597656 L 610.121094 332.597656 Z M 610.121094 357.8125 " />
<path fill-rule="nonzero" fill="rgb(13.729858%, 12.159729%, 12.548828%)" fill-opacity="1" d="M 625.578125 357.8125 L 630.289062 351.328125 L 636.617188 351.328125 C 638.125 351.328125 639.898438 351.328125 641.105469 351.402344 C 640.425781 350.5 639.371094 348.953125 638.539062 347.75 L 634.019531 341.074219 L 622.183594 357.8125 L 612.949219 357.8125 L 629.121094 335.007812 C 630.175781 333.539062 631.71875 332.183594 634.171875 332.183594 C 636.503906 332.183594 638.050781 333.425781 639.144531 335.007812 L 654.898438 357.8125 Z M 625.578125 357.8125 " />
<path fill-rule="nonzero" fill="rgb(13.729858%, 12.159729%, 12.548828%)" fill-opacity="1" d="M 680.117188 356.867188 L 664.664062 343 L 664.664062 357.808594 L 657.578125 357.808594 L 657.578125 336.894531 C 657.578125 333.539062 659.613281 332.183594 661.835938 332.183594 C 662.78125 332.183594 663.722656 332.410156 664.964844 333.539062 L 680.417969 347.40625 L 680.417969 332.597656 L 687.542969 332.597656 L 687.542969 353.476562 C 687.542969 356.832031 685.507812 358.226562 683.246094 358.226562 C 682.265625 358.226562 681.320312 358 680.117188 356.867188 " />
<path fill-rule="nonzero" fill="rgb(13.729858%, 12.159729%, 12.548828%)" fill-opacity="1" d="M 709.027344 357.8125 L 692.140625 357.8125 L 692.140625 342.09375 L 699.980469 342.09375 L 699.980469 351.328125 L 709.027344 351.328125 C 713.359375 351.328125 716.488281 348.917969 716.488281 345.296875 C 716.488281 341.753906 713.246094 339.15625 709.027344 339.15625 L 692.140625 339.15625 L 697.117188 332.597656 L 709.027344 332.597656 C 717.84375 332.597656 724.214844 337.683594 724.214844 344.957031 C 724.214844 352.269531 717.769531 357.8125 709.027344 357.8125 " />
<path fill-rule="nonzero" fill="rgb(13.729858%, 12.159729%, 12.548828%)" fill-opacity="1" d="M 757.460938 351.328125 L 752.445312 357.8125 L 728.175781 357.8125 L 728.175781 332.597656 L 757.382812 332.597656 L 752.332031 339.15625 L 736.015625 339.15625 L 736.015625 342.167969 L 755.988281 342.167969 L 751.503906 347.898438 L 736.015625 347.898438 L 736.015625 351.328125 Z M 757.460938 351.328125 " />
<path fill-rule="nonzero" fill="rgb(13.729858%, 12.159729%, 12.548828%)" fill-opacity="1" d="M 787.460938 351.328125 L 782.410156 357.8125 L 760.136719 357.8125 L 760.136719 332.597656 L 767.9375 332.597656 L 767.9375 351.328125 Z M 787.460938 351.328125 " />
</svg>